<svg width="154" height="50" xmlns="http://www.w3.org/2000/svg" fill="none">

 <g>
  <title>Layer 1</title>
  <path stroke="null" id="svg_2" fill="#1967D2" d="m20,7c-7.73198,0 -14,6.4471 -14,14.4l0,7.2c0,7.9529 6.26801,14.4 14,14.4l7,0c7.73199,0 14,-6.4471 14,-14.4l0,-7.2c0,-7.9529 -6.26801,-14.4 -14,-14.4l-7,0zm9.1,8.97826l-9.21375,9.20945c-1.40945,-1.4099 -1.40945,-3.68798 0,-5.09782l4.1174,-4.11854c1.40945,-1.40292 3.6869,-1.40292 5.09635,0.00691zm-9.44286,19.01606l6.65861,-6.66043c1.40952,-1.4099 1.40952,-3.68791 0,-5.09782l-6.65861,6.6605c-1.40952,1.40983 -1.40952,3.68791 0,5.09774zm8.27638,-9.20938c0,-0.20837 -0.02079,-0.41666 -0.04858,-0.61812c0.56238,1.31962 0.30548,2.8962 -0.76377,3.97267l-6.65861,6.6605c-0.13888,-0.13889 -0.26383,-0.29167 -0.37492,-0.44453l6.63082,-6.63264c0.78456,-0.78487 1.21506,-1.82664 1.21506,-2.93789zm-2.22187,-2.72945l-2.95085,2.9587l-2.26352,-0.6529l2.98557,-2.9795l2.2288,0.6737z" clip-rule="evenodd" fill-rule="evenodd"/>
  <text font-weight="bold" xml:space="preserve" text-anchor="start" font-family="Noto Sans JP" font-size="20" stroke-width="0" id="svg_4" y="31.39998" x="45.59997" fill="#000000">TalentWave</text>
 </g>
</svg>