<svg width="154" height="50" xmlns="http://www.w3.org/2000/svg" fill="none">

 <g>
  <title>Layer 1</title>
  <path stroke="null" id="svg_2" fill="white" d="m19.2,5c-8.39472,0 -15.2,6.98436 -15.2,15.6l0,7.8c0,8.61565 6.80527,15.6 15.2,15.6l7.6,0c8.39473,0 15.2,-6.98435 15.2,-15.6l0,-7.8c0,-8.61564 -6.80527,-15.6 -15.2,-15.6l-7.6,0zm9.88,9.72644l-10.0035,9.9769c-1.53026,-1.5274 -1.53026,-3.99532 0,-5.52263l4.47032,-4.46176c1.53026,-1.51983 4.00292,-1.51983 5.53318,0.00749zm-10.25225,20.60074l7.22935,-7.21547c1.53034,-1.5274 1.53034,-3.99524 0,-5.52263l-7.22935,7.21555c-1.53034,1.52732 -1.53034,3.99524 0,5.52256zm8.98578,-9.97682c0,-0.22573 -0.02257,-0.45139 -0.05274,-0.66963c0.61058,1.42958 0.33166,3.13755 -0.82924,4.30373l-7.22935,7.21555c-0.15078,-0.15046 -0.28644,-0.31598 -0.40706,-0.48157l7.19918,-7.18536c0.85181,-0.85028 1.31921,-1.97886 1.31921,-3.18271zm-2.41232,-2.9569l-3.20378,3.20525l-2.45754,-0.7073l3.24148,-3.2278l2.41984,0.72985z" clip-rule="evenodd" fill-rule="evenodd"/>
  <text font-weight="bold" xml:space="preserve" text-anchor="start" font-family="Noto Sans JP" font-size="20" stroke-width="0" id="svg_3" y="31.39998" x="45.59997" fill="#ffffff">TalentWave</text>
 </g>
</svg>